<svg width="35" height="36" viewBox="0 0 35 36" fill="none" xmlns="http://www.w3.org/2000/svg">
<path d="M0.823552 15.2778L14.9681 1.91898C16.1128 0.83788 17.8985 0.825679 19.0579 1.89103L33.6105 15.2637C34.2816 15.8804 33.8453 17 32.9338 17H32.5C30.8431 17 29.5 18.3431 29.5 20V32C29.5 33.6569 28.1569 35 26.5 35H20.5V28C20.5 26.3431 19.1569 25 17.5 25H16.5C14.8431 25 13.5 26.3431 13.5 28V35H7.5C5.84315 35 4.5 33.6569 4.5 32V19.9917C4.5 18.3394 3.16056 17 1.50828 17C0.606036 17 0.167608 15.8973 0.823552 15.2778Z" stroke="#313030" stroke-linecap="round" stroke-linejoin="round"/>
</svg>
