<svg width="35" height="29" viewBox="0 0 35 29" fill="none" xmlns="http://www.w3.org/2000/svg">
<mask id="path-1-inside-1" fill="white">
<path d="M10.5773 25.8988C14.4622 27.1896 18.8216 27.3513 22.8491 26.3539C26.8765 25.3565 30.2994 23.2676 32.4844 20.4736C34.6694 17.6796 35.4686 14.3696 34.7342 11.1561C33.9998 7.9426 31.7815 5.04304 28.4897 2.9939C25.1978 0.944763 21.0553 -0.115265 16.8285 0.00994188C12.6017 0.135149 8.57677 1.43712 5.49833 3.67496C2.41989 5.9128 0.496328 8.93505 0.0835327 12.1825C-0.329263 15.43 0.796649 18.6829 3.25296 21.3395L4.25025 20.7907C1.96588 18.3201 0.918786 15.2949 1.30269 12.2748C1.68659 9.25459 3.4755 6.4439 6.33845 4.36271C9.2014 2.28152 12.9446 1.07069 16.8755 0.954246C20.8064 0.837803 24.659 1.82363 27.7204 3.72933C30.7818 5.63503 32.8448 8.33162 33.5278 11.3202C34.2108 14.3087 33.4675 17.387 31.4355 19.9854C29.4034 22.5838 26.2202 24.5266 22.4746 25.4541C18.7291 26.3817 14.6748 26.2313 11.0619 25.0309L10.5773 25.8988Z"/>
</mask>
<path d="M10.5773 25.8988C14.4622 27.1896 18.8216 27.3513 22.8491 26.3539C26.8765 25.3565 30.2994 23.2676 32.4844 20.4736C34.6694 17.6796 35.4686 14.3696 34.7342 11.1561C33.9998 7.9426 31.7815 5.04304 28.4897 2.9939C25.1978 0.944763 21.0553 -0.115265 16.8285 0.00994188C12.6017 0.135149 8.57677 1.43712 5.49833 3.67496C2.41989 5.9128 0.496328 8.93505 0.0835327 12.1825C-0.329263 15.43 0.796649 18.6829 3.25296 21.3395L4.25025 20.7907C1.96588 18.3201 0.918786 15.2949 1.30269 12.2748C1.68659 9.25459 3.4755 6.4439 6.33845 4.36271C9.2014 2.28152 12.9446 1.07069 16.8755 0.954246C20.8064 0.837803 24.659 1.82363 27.7204 3.72933C30.7818 5.63503 32.8448 8.33162 33.5278 11.3202C34.2108 14.3087 33.4675 17.387 31.4355 19.9854C29.4034 22.5838 26.2202 24.5266 22.4746 25.4541C18.7291 26.3817 14.6748 26.2313 11.0619 25.0309L10.5773 25.8988Z" fill="#C4C4C4" stroke="#313030" stroke-width="2" mask="url(#path-1-inside-1)"/>
<path d="M4 21L0.5 28.5L11 25.5" stroke="#313030" stroke-linecap="round" stroke-linejoin="round"/>
<path d="M14 10H24M24 13H10M10 16H20" stroke="#313030" stroke-linecap="round" stroke-linejoin="round"/>
</svg>
